<svg width="24" height="24" viewBox="0 0 24 24" fill="none" xmlns="http://www.w3.org/2000/svg">
<g clip-path="url(#clip0_500_2143)">
<path d="M6.25 3.5C5.78587 3.5 5.34075 3.68437 5.01256 4.01256C4.68437 4.34075 4.5 4.78587 4.5 5.25V7.75C4.5 8.716 5.284 9.5 6.25 9.5H8.75C9.21413 9.5 9.65925 9.31563 9.98744 8.98744C10.3156 8.65925 10.5 8.21413 10.5 7.75V5.25C10.5 4.78587 10.3156 4.34075 9.98744 4.01256C9.65925 3.68437 9.21413 3.5 8.75 3.5H6.25ZM13.5 5.25C13.5 4.284 14.284 3.5 15.25 3.5H17.75C18.716 3.5 19.5 4.284 19.5 5.25V7.75C19.5 8.21413 19.3156 8.65925 18.9874 8.98744C18.6592 9.31563 18.2141 9.5 17.75 9.5H15.25C14.7859 9.5 14.3408 9.31563 14.0126 8.98744C13.6844 8.65925 13.5 8.21413 13.5 7.75V5.25ZM15.25 5C15.1837 5 15.1201 5.02634 15.0732 5.07322C15.0263 5.12011 15 5.1837 15 5.25V7.75C15 7.888 15.112 8 15.25 8H17.75C17.8163 8 17.8799 7.97366 17.9268 7.92678C17.9737 7.87989 18 7.8163 18 7.75V5.25C18 5.1837 17.9737 5.12011 17.9268 5.07322C17.8799 5.02634 17.8163 5 17.75 5H15.25ZM7 17.5C7.39782 17.5 7.77936 17.342 8.06066 17.0607C8.34196 16.7794 8.5 16.3978 8.5 16C8.5 15.6022 8.34196 15.2206 8.06066 14.9393C7.77936 14.658 7.39782 14.5 7 14.5C6.60218 14.5 6.22064 14.658 5.93934 14.9393C5.65804 15.2206 5.5 15.6022 5.5 16C5.5 16.3978 5.65804 16.7794 5.93934 17.0607C6.22064 17.342 6.60218 17.5 7 17.5ZM13.5 16C13.5 16.3978 13.342 16.7794 13.0607 17.0607C12.7794 17.342 12.3978 17.5 12 17.5C11.6022 17.5 11.2206 17.342 10.9393 17.0607C10.658 16.7794 10.5 16.3978 10.5 16C10.5 15.6022 10.658 15.2206 10.9393 14.9393C11.2206 14.658 11.6022 14.5 12 14.5C12.3978 14.5 12.7794 14.658 13.0607 14.9393C13.342 15.2206 13.5 15.6022 13.5 16ZM17 17.5C17.3978 17.5 17.7794 17.342 18.0607 17.0607C18.342 16.7794 18.5 16.3978 18.5 16C18.5 15.6022 18.342 15.2206 18.0607 14.9393C17.7794 14.658 17.3978 14.5 17 14.5C16.6022 14.5 16.2206 14.658 15.9393 14.9393C15.658 15.2206 15.5 15.6022 15.5 16C15.5 16.3978 15.658 16.7794 15.9393 17.0607C16.2206 17.342 16.6022 17.5 17 17.5ZM2 16C2 14.8065 2.47411 13.6619 3.31802 12.818C4.16193 11.9741 5.30653 11.5 6.5 11.5H17.5C18.6935 11.5 19.8381 11.9741 20.682 12.818C21.5259 13.6619 22 14.8065 22 16C22 17.1935 21.5259 18.3381 20.682 19.182C19.8381 20.0259 18.6935 20.5 17.5 20.5H6.5C5.30653 20.5 4.16193 20.0259 3.31802 19.182C2.47411 18.3381 2 17.1935 2 16ZM6.5 13C5.70435 13 4.94129 13.3161 4.37868 13.8787C3.81607 14.4413 3.5 15.2044 3.5 16C3.5 16.7956 3.81607 17.5587 4.37868 18.1213C4.94129 18.6839 5.70435 19 6.5 19H17.5C18.2956 19 19.0587 18.6839 19.6213 18.1213C20.1839 17.5587 20.5 16.7956 20.5 16C20.5 15.2044 20.1839 14.4413 19.6213 13.8787C19.0587 13.3161 18.2956 13 17.5 13H6.5Z" fill="#FE8900"/>
</g>
<defs>
<clipPath id="clip0_500_2143">
<rect width="24" height="24" fill="white"/>
</clipPath>
</defs>
</svg>
