<svg width="64" height="66" viewBox="0 0 64 66" fill="none" xmlns="http://www.w3.org/2000/svg">
<path d="M15.3333 63.8388H48.6667M22 48.4552V63.8388M42 48.4552V63.8388M2 6.15023C2 5.13023 2.35119 4.15201 2.97631 3.43076C3.60143 2.70951 4.44928 2.30432 5.33333 2.30432H58.6667C59.5507 2.30432 60.3986 2.70951 61.0237 3.43076C61.6488 4.15201 62 5.13023 62 6.15023V44.6093C62 45.6293 61.6488 46.6075 61.0237 47.3288C60.3986 48.05 59.5507 48.4552 58.6667 48.4552H5.33333C4.44928 48.4552 3.60143 48.05 2.97631 47.3288C2.35119 46.6075 2 45.6293 2 44.6093V6.15023Z" stroke="black" stroke-width="3" stroke-linecap="round" stroke-linejoin="round"/>
</svg>
