<svg width="17" height="13" viewBox="0 0 17 13" fill="none" xmlns="http://www.w3.org/2000/svg">
<path d="M15.7961 5.83524C16.1535 6.32552 16.1535 6.9874 15.7961 7.4769C14.6705 9.01813 11.9698 12.1915 8.81684 12.1915C5.66385 12.1915 2.96323 9.01813 1.83759 7.4769C1.66372 7.24214 1.56934 6.95334 1.56934 6.65607C1.56934 6.3588 1.66372 6.06999 1.83759 5.83524C2.96323 4.29401 5.66385 1.12061 8.81684 1.12061C11.9698 1.12061 14.6705 4.29401 15.7961 5.83524V5.83524Z" stroke="black" stroke-width="1.5" stroke-linecap="round" stroke-linejoin="round"/>
<path d="M8.81701 9.02837C10.0662 9.02837 11.0788 7.96624 11.0788 6.65603C11.0788 5.34582 10.0662 4.28369 8.81701 4.28369C7.56783 4.28369 6.55518 5.34582 6.55518 6.65603C6.55518 7.96624 7.56783 9.02837 8.81701 9.02837Z" stroke="black" stroke-width="1.5" stroke-linecap="round" stroke-linejoin="round"/>
</svg>
