<svg width="594" height="864" viewBox="0 0 594 864" fill="none" xmlns="http://www.w3.org/2000/svg">
<rect width="50.0555" height="67.5223" transform="matrix(0.804745 0.59362 -0.306735 0.951795 240.59 605.872)" fill="#0E60FF"/>
<rect width="77.533" height="119.566" rx="38.7665" transform="matrix(0.959429 0.281949 -0.127344 0.991859 228.067 474.265)" fill="#3B9DF8"/>
<path d="M331.579 214.702H247.672V216.517H331.579V214.702Z" fill="#3B9DF8"/>
<path d="M308.805 216.063H307.606V232.855H308.805V216.063Z" fill="#3B9DF8"/>
<path d="M272.245 216.063H271.047V232.855H272.245V216.063Z" fill="#3B9DF8"/>
<path d="M374.133 301.836H290.226V303.651H374.133V301.836Z" fill="#3B9DF8"/>
<path d="M314.199 285.499H313V302.29H314.199V285.499Z" fill="#3B9DF8"/>
<path d="M350.758 285.499H349.559V302.29H350.758V285.499Z" fill="#3B9DF8"/>
<path d="M485.609 342.68H401.702V344.495H485.609V342.68Z" fill="#3B9DF8"/>
<path d="M425.675 326.343H424.476V343.134H425.675V326.343Z" fill="#3B9DF8"/>
<path d="M462.234 326.343H461.035V343.134H462.234V326.343Z" fill="#3B9DF8"/>
<path d="M477.218 763.825H393.311V765.64H477.218V763.825Z" fill="#3B9DF8"/>
<path d="M417.285 747.487H416.086V764.279H417.285V747.487Z" fill="#3B9DF8"/>
<path d="M453.843 747.487H452.645V764.279H453.843V747.487Z" fill="#3B9DF8"/>
<path d="M333.977 472.473H250.07V474.288H333.977V472.473Z" fill="#3B9DF8"/>
<path d="M274.044 456.135H272.845V472.926H274.044V456.135Z" fill="#3B9DF8"/>
<path d="M310.603 456.135H309.404V472.926H310.603V456.135Z" fill="#3B9DF8"/>
<path d="M360.348 691.213H276.441V693.028H360.348V691.213Z" fill="#3B9DF8"/>
<path d="M300.415 674.876H299.216V691.667H300.415V674.876Z" fill="#3B9DF8"/>
<path d="M336.974 674.876H335.775V691.667H336.974V674.876Z" fill="#3B9DF8"/>
<path d="M494.599 624.955H410.692V626.77H494.599V624.955Z" fill="#3B9DF8"/>
<path d="M434.665 608.618H433.466V625.409H434.665V608.618Z" fill="#3B9DF8"/>
<path d="M471.224 608.618H470.025V625.409H471.224V608.618Z" fill="#3B9DF8"/>
<path d="M231.161 827.155L91.8511 786.216L92.0459 784.699L230.353 825.343L239.805 751.73L113.208 714.527L109.55 693.316L110.538 692.925L114.034 713.194L241.002 750.506L231.161 827.155Z" fill="#201F30"/>
<path d="M105.618 828.851C111.43 830.559 117.058 824.808 118.188 816.007C119.318 807.205 115.523 798.685 109.711 796.977C103.899 795.269 98.2712 801.02 97.1411 809.822C96.0111 818.623 99.8065 827.143 105.618 828.851Z" fill="#3F3D56"/>
<path d="M209.349 859.334C215.161 861.042 220.789 855.292 221.919 846.49C223.049 837.688 219.254 829.169 213.442 827.461C207.63 825.753 202.002 831.503 200.872 840.305C199.742 849.107 203.537 857.626 209.349 859.334Z" fill="#3F3D56"/>
<path d="M375.857 550.728C379.455 551.785 382.938 548.225 383.638 542.777C384.337 537.328 381.988 532.054 378.39 530.996C374.792 529.939 371.308 533.499 370.609 538.948C369.909 544.396 372.259 549.67 375.857 550.728Z" fill="#3F3D56"/>
<path d="M258.923 731.36L102.337 685.344L89.989 507.671L315.348 573.898L315.017 574.824L258.923 731.36ZM103.274 684.044L258.382 729.626L313.787 575.014L91.1487 509.587L103.274 684.044Z" fill="#201F30"/>
<path d="M206.681 681.91L121.204 679.724L103.741 586.809L226.761 589.954L226.643 590.495L206.681 681.91Z" fill="#00FFC2"/>
<path d="M320.079 559.739L319.16 559.065L330.621 523.258L369.091 534.563L368.897 536.082L331.197 525.003L320.079 559.739Z" fill="#201F30"/>
<path d="M297.559 621.434L94.4099 561.734L94.215 563.252L297.364 622.952L297.559 621.434Z" fill="#201F30"/>
<path d="M278.746 673.934L98.5271 620.973L98.3322 622.49L278.551 675.452L278.746 673.934Z" fill="#201F30"/>
<path d="M203.069 541.689L202.067 541.395L180.729 707.593L181.731 707.888L203.069 541.689Z" fill="#201F30"/>
<path d="M247.947 554.828L219.415 718.908L220.403 719.301L248.935 555.221L247.947 554.828Z" fill="#201F30"/>
<path d="M157.223 528.165L156.21 527.97L142.024 696.27L143.037 696.466L157.223 528.165Z" fill="#201F30"/>
<path d="M356.849 238.272C356.849 238.272 365.61 276.035 360.219 281.845C354.827 287.655 378.415 335.101 378.415 335.101L406.721 323.482L391.22 283.781C391.22 283.781 389.198 244.081 389.198 238.272C389.198 232.462 356.849 238.272 356.849 238.272Z" fill="#FFD6BA"/>
<path opacity="0.1" d="M356.849 238.272C356.849 238.272 365.61 276.035 360.219 281.845C354.827 287.655 378.415 335.101 378.415 335.101L406.721 323.482L391.22 283.781C391.22 283.781 389.198 244.081 389.198 238.272C389.198 232.462 356.849 238.272 356.849 238.272Z" fill="black"/>
<path d="M342.143 507.459C342.143 507.459 339.585 555.873 342.143 581.049C344.7 606.225 348.537 675.942 348.537 675.942C348.537 675.942 348.537 807.63 362.603 809.567C376.67 811.503 386.9 813.44 388.179 805.694C389.457 797.947 381.785 794.074 385.621 790.201C389.457 786.328 390.736 772.772 385.621 757.279C380.506 741.786 385.621 584.922 385.621 584.922L409.918 683.688C409.918 683.688 412.475 765.025 415.033 776.645C417.59 788.264 412.475 809.567 421.427 811.503C430.378 813.44 440.608 801.82 445.723 797.947C450.838 794.074 438.051 794.074 440.608 792.137C443.166 790.201 450.838 784.391 448.281 782.455C445.723 780.518 443.166 687.562 443.166 687.562C443.166 687.562 436.132 489.061 427.181 481.315C418.23 473.568 412.475 486.911 412.475 486.911L342.143 507.459Z" fill="#201F30"/>
<path d="M365.16 801.82V817.313C365.16 817.313 353.652 859.427 365.16 859.427C376.669 859.427 385.621 863.791 385.621 857.981V805.694L365.16 801.82Z" fill="#201F30"/>
<path d="M437.296 800.289L438.976 815.572C438.976 815.572 454.896 854.259 443.543 857.115C432.19 859.972 423.833 866.499 423.203 860.767L417.533 809.188L437.296 800.289Z" fill="#201F30"/>
<path d="M364.059 264.517C376.311 269.642 388.993 258.753 392.384 240.198C395.774 221.642 388.59 202.445 376.337 197.32C364.084 192.195 351.403 203.084 348.012 221.639C344.621 240.195 351.806 259.392 364.059 264.517Z" fill="#FFD6BA"/>
<path d="M367.718 296.37C367.718 296.37 374.112 325.419 384.342 319.609L394.573 313.799L412.475 499.712C412.475 499.712 398.409 530.698 377.949 511.332C357.488 491.966 367.718 296.37 367.718 296.37Z" fill="white"/>
<path d="M385.621 290.56L391.376 272.162C391.376 272.162 425.263 296.369 430.378 304.116C435.493 311.862 435.493 323.482 435.493 323.482L426.542 371.897C426.542 371.897 429.1 478.409 429.1 482.282C429.1 486.155 438.051 507.458 431.657 499.712C425.263 491.965 423.984 484.219 418.869 495.838C413.754 507.458 402.245 521.014 402.245 521.014L385.621 290.56Z" fill="#3B9DF8"/>
<path d="M430.378 429.995L426.542 484.22C426.542 484.22 403.524 515.205 408.639 517.142C413.754 519.078 416.312 511.332 416.312 511.332C416.312 511.332 425.263 524.888 430.378 517.142C435.493 509.395 448.281 435.805 448.281 435.805L430.378 429.995Z" fill="#FFD6BA"/>
<path d="M379.348 183.632C374.478 181.308 369.239 178.975 364.359 181.255C362.082 182.471 359.956 184.252 358.065 186.525C352.614 192.568 347.346 200.837 347.093 211.058L349.024 210.757C348.556 213.318 347.718 215.69 346.571 217.701C347.013 216.723 347.516 218.813 347.096 219.814L343.434 228.547C346.91 228.115 350.186 233.304 349.746 238.542C351.99 227.557 355.069 215.173 362.188 211.169C365.777 209.15 369.746 209.735 373.552 210.372C377.062 210.96 380.728 211.654 383.641 214.676C386.554 217.698 388.385 223.831 386.735 228.561C388.361 228.407 389.735 230.668 390.084 233.077C390.434 235.486 390.019 237.982 389.607 240.369C390.879 242.724 393.295 240.114 394.445 237.617C397.146 231.755 399.754 225.404 400.177 218.287C400.6 211.17 398.137 203.169 393.593 201.244C394.313 200.557 394.828 199.473 395.03 198.221L391.369 196.173C392.358 196.367 393.361 196.034 394.206 195.232C392.242 197.111 381.757 184.781 379.348 183.632Z" fill="#201F30"/>
<path d="M374.112 284.75C374.112 284.75 363.703 269.301 359.956 270.248C356.21 271.194 351.095 284.75 351.095 284.75C351.095 284.75 320.404 300.243 321.683 315.736C322.962 331.228 337.028 406.756 337.028 406.756C337.028 406.756 348.537 497.775 338.307 507.458C328.077 517.141 386.9 542.317 388.179 530.697C389.458 519.078 392.015 402.882 388.179 385.453C384.343 368.024 374.112 284.75 374.112 284.75Z" fill="#3B9DF8"/>
<path d="M418.87 315.735H434.682C434.682 315.735 445.724 389.326 447.003 397.072C448.281 404.819 450.839 441.614 449.56 441.614C448.281 441.614 422.706 433.867 422.706 439.677L418.87 315.735Z" fill="#3B9DF8"/>
<path d="M418.334 510.297H357.801C351.894 469.145 351.4 429.384 357.801 391.396H418.334C408.565 428.701 407.955 468.189 418.334 510.297Z" fill="#3B9DF8"/>
<path d="M333.191 453.588L351.094 465.208C351.094 465.208 385.621 472.954 385.621 451.651C385.621 430.349 351.094 441.969 351.094 441.969L339.584 436.396L333.191 453.588Z" fill="#FFD6BA"/>
<path d="M337.027 304.116L321.682 309.926L310.173 412.565C310.173 412.565 306.337 439.678 312.731 441.614C319.125 443.551 337.027 459.044 337.027 459.044C337.027 459.044 339.585 429.995 344.7 429.995L331.912 414.502L339.585 346.721L337.027 304.116Z" fill="#3B9DF8"/>
<path d="M120.015 502.424H36.1079V504.239H120.015V502.424Z" fill="#3B9DF8"/>
<path d="M60.0815 486.087H58.8828V502.878H60.0815V486.087Z" fill="#3B9DF8"/>
<path d="M96.6408 486.087H95.4421V502.878H96.6408V486.087Z" fill="#3B9DF8"/>
<path d="M149.382 233.763H65.4753V235.578H149.382V233.763Z" fill="#3B9DF8"/>
<path d="M126.608 235.124H125.409V251.915H126.608V235.124Z" fill="#3B9DF8"/>
<path d="M90.0483 235.124H88.8496V251.915H90.0483V235.124Z" fill="#3B9DF8"/>
<path d="M250.185 412.567H166.278V414.383H250.185V412.567Z" fill="#3B9DF8"/>
<path d="M227.41 413.93H226.211V430.721H227.41V413.93Z" fill="#3B9DF8"/>
<path d="M190.851 413.93H189.652V430.721H190.851V413.93Z" fill="#3B9DF8"/>
<path d="M91.2471 411.66H7.34033V413.475H91.2471V411.66Z" fill="#3B9DF8"/>
<path d="M68.4724 413.021H67.2737V429.813H68.4724V413.021Z" fill="#3B9DF8"/>
<path d="M31.9123 413.021H30.7136V429.813H31.9123V413.021Z" fill="#3B9DF8"/>
<path d="M191.935 320.896H108.028V322.712H191.935V320.896Z" fill="#3B9DF8"/>
<path d="M132.002 304.559H130.803V321.35H132.002V304.559Z" fill="#3B9DF8"/>
<path d="M168.561 304.559H167.362V321.35H168.561V304.559Z" fill="#3B9DF8"/>
</svg>
