<svg width="594" height="914" viewBox="0 0 594 914" fill="none" xmlns="http://www.w3.org/2000/svg">
<rect width="50.0555" height="67.5223" transform="matrix(0.804745 0.59362 -0.306735 0.951795 240.59 655.872)" fill="#0E60FF"/>
<rect width="77.533" height="119.566" rx="38.7665" transform="matrix(0.959429 0.281949 -0.127344 0.991859 228.067 524.265)" fill="#3B9DF8"/>
<path d="M331.579 264.702H247.672V266.517H331.579V264.702Z" fill="#3B9DF8"/>
<path d="M308.805 266.063H307.606V282.855H308.805V266.063Z" fill="#3B9DF8"/>
<path d="M272.245 266.063H271.047V282.855H272.245V266.063Z" fill="#3B9DF8"/>
<path d="M374.133 351.836H290.226V353.651H374.133V351.836Z" fill="#3B9DF8"/>
<path d="M314.199 335.499H313V352.29H314.199V335.499Z" fill="#3B9DF8"/>
<path d="M350.758 335.499H349.559V352.29H350.758V335.499Z" fill="#3B9DF8"/>
<path d="M485.609 392.68H401.702V394.495H485.609V392.68Z" fill="#3B9DF8"/>
<path d="M425.675 376.343H424.476V393.134H425.675V376.343Z" fill="#3B9DF8"/>
<path d="M462.234 376.343H461.035V393.134H462.234V376.343Z" fill="#3B9DF8"/>
<path d="M477.218 813.825H393.311V815.64H477.218V813.825Z" fill="#3B9DF8"/>
<path d="M417.285 797.487H416.086V814.279H417.285V797.487Z" fill="#3B9DF8"/>
<path d="M453.843 797.487H452.645V814.279H453.843V797.487Z" fill="#3B9DF8"/>
<path d="M333.977 522.473H250.07V524.288H333.977V522.473Z" fill="#3B9DF8"/>
<path d="M274.044 506.135H272.845V522.926H274.044V506.135Z" fill="#3B9DF8"/>
<path d="M310.603 506.135H309.404V522.926H310.603V506.135Z" fill="#3B9DF8"/>
<path d="M360.348 741.213H276.441V743.028H360.348V741.213Z" fill="#3B9DF8"/>
<path d="M300.415 724.876H299.216V741.667H300.415V724.876Z" fill="#3B9DF8"/>
<path d="M336.974 724.876H335.775V741.667H336.974V724.876Z" fill="#3B9DF8"/>
<path d="M494.599 674.955H410.692V676.77H494.599V674.955Z" fill="#3B9DF8"/>
<path d="M434.665 658.618H433.466V675.409H434.665V658.618Z" fill="#3B9DF8"/>
<path d="M471.224 658.618H470.025V675.409H471.224V658.618Z" fill="#3B9DF8"/>
<path d="M231.161 877.155L91.8511 836.216L92.0459 834.699L230.353 875.343L239.805 801.73L113.208 764.527L109.55 743.316L110.538 742.925L114.034 763.194L241.002 800.506L231.161 877.155Z" fill="#201F30"/>
<path d="M105.618 878.851C111.43 880.559 117.058 874.808 118.188 866.007C119.318 857.205 115.523 848.685 109.711 846.977C103.899 845.269 98.2712 851.02 97.1411 859.822C96.0111 868.623 99.8065 877.143 105.618 878.851Z" fill="#3F3D56"/>
<path d="M209.349 909.334C215.161 911.042 220.789 905.292 221.919 896.49C223.049 887.688 219.254 879.169 213.442 877.461C207.63 875.753 202.002 881.503 200.872 890.305C199.742 899.107 203.537 907.626 209.349 909.334Z" fill="#3F3D56"/>
<path d="M375.857 600.728C379.455 601.785 382.938 598.225 383.638 592.777C384.337 587.328 381.988 582.054 378.39 580.996C374.792 579.939 371.308 583.499 370.609 588.948C369.909 594.396 372.259 599.67 375.857 600.728Z" fill="#3F3D56"/>
<path d="M258.923 781.36L102.337 735.344L89.989 557.671L315.348 623.898L315.017 624.824L258.923 781.36ZM103.274 734.044L258.382 779.626L313.787 625.014L91.1487 559.587L103.274 734.044Z" fill="#201F30"/>
<path d="M206.681 731.91L121.204 729.724L103.741 636.809L226.761 639.954L226.643 640.495L206.681 731.91Z" fill="#00FFC2"/>
<path d="M320.079 609.739L319.16 609.065L330.621 573.258L369.091 584.563L368.897 586.082L331.197 575.003L320.079 609.739Z" fill="#201F30"/>
<path d="M297.559 671.434L94.4099 611.734L94.215 613.252L297.364 672.952L297.559 671.434Z" fill="#201F30"/>
<path d="M278.746 723.934L98.5271 670.973L98.3322 672.49L278.551 725.452L278.746 723.934Z" fill="#201F30"/>
<path d="M203.069 591.689L202.067 591.395L180.729 757.593L181.731 757.888L203.069 591.689Z" fill="#201F30"/>
<path d="M247.947 604.828L219.415 768.908L220.403 769.301L248.935 605.221L247.947 604.828Z" fill="#201F30"/>
<path d="M157.223 578.165L156.21 577.97L142.024 746.27L143.037 746.466L157.223 578.165Z" fill="#201F30"/>
<path d="M356.849 288.272C356.849 288.272 365.61 326.035 360.219 331.845C354.827 337.655 378.415 385.101 378.415 385.101L406.721 373.482L391.22 333.781C391.22 333.781 389.198 294.081 389.198 288.272C389.198 282.462 356.849 288.272 356.849 288.272Z" fill="#FFD6BA"/>
<path opacity="0.1" d="M356.849 288.272C356.849 288.272 365.61 326.035 360.219 331.845C354.827 337.655 378.415 385.101 378.415 385.101L406.721 373.482L391.22 333.781C391.22 333.781 389.198 294.081 389.198 288.272C389.198 282.462 356.849 288.272 356.849 288.272Z" fill="black"/>
<path d="M342.143 557.459C342.143 557.459 339.585 605.873 342.143 631.049C344.7 656.225 348.537 725.942 348.537 725.942C348.537 725.942 348.537 857.63 362.603 859.567C376.67 861.503 386.9 863.44 388.179 855.694C389.457 847.947 381.785 844.074 385.621 840.201C389.457 836.328 390.736 822.772 385.621 807.279C380.506 791.786 385.621 634.922 385.621 634.922L409.918 733.688C409.918 733.688 412.475 815.025 415.033 826.645C417.59 838.264 412.475 859.567 421.427 861.503C430.378 863.44 440.608 851.82 445.723 847.947C450.838 844.074 438.051 844.074 440.608 842.137C443.166 840.201 450.838 834.391 448.281 832.454C445.723 830.518 443.166 737.562 443.166 737.562C443.166 737.562 436.132 539.061 427.181 531.315C418.23 523.568 412.475 536.911 412.475 536.911L342.143 557.459Z" fill="#201F30"/>
<path d="M365.16 851.82V867.313C365.16 867.313 353.652 909.427 365.16 909.427C376.669 909.427 385.621 913.791 385.621 907.981V855.694L365.16 851.82Z" fill="#201F30"/>
<path d="M437.296 850.289L438.976 865.572C438.976 865.572 454.896 904.259 443.543 907.115C432.19 909.972 423.833 916.499 423.203 910.767L417.533 859.188L437.296 850.289Z" fill="#201F30"/>
<path d="M364.059 314.517C376.311 319.642 388.993 308.753 392.384 290.198C395.774 271.642 388.59 252.445 376.337 247.32C364.084 242.195 351.403 253.084 348.012 271.639C344.621 290.195 351.806 309.392 364.059 314.517Z" fill="#FFD6BA"/>
<path d="M367.718 346.37C367.718 346.37 374.112 375.419 384.342 369.609L394.573 363.799L412.475 549.712C412.475 549.712 398.409 580.698 377.949 561.332C357.488 541.966 367.718 346.37 367.718 346.37Z" fill="white"/>
<path d="M385.621 340.56L391.376 322.162C391.376 322.162 425.263 346.369 430.378 354.116C435.493 361.862 435.493 373.482 435.493 373.482L426.542 421.897C426.542 421.897 429.1 528.409 429.1 532.282C429.1 536.155 438.051 557.458 431.657 549.712C425.263 541.965 423.984 534.219 418.869 545.838C413.754 557.458 402.245 571.014 402.245 571.014L385.621 340.56Z" fill="#3B9DF8"/>
<path d="M430.378 479.995L426.542 534.22C426.542 534.22 403.524 565.205 408.639 567.142C413.754 569.078 416.312 561.332 416.312 561.332C416.312 561.332 425.263 574.888 430.378 567.142C435.493 559.395 448.281 485.805 448.281 485.805L430.378 479.995Z" fill="#FFD6BA"/>
<path d="M379.348 233.632C374.478 231.308 369.239 228.975 364.359 231.255C362.082 232.471 359.956 234.252 358.065 236.525C352.614 242.568 347.346 250.837 347.093 261.058L349.024 260.757C348.556 263.318 347.718 265.69 346.571 267.701C347.013 266.723 347.516 268.813 347.096 269.814L343.434 278.547C346.91 278.115 350.186 283.304 349.746 288.542C351.99 277.557 355.069 265.173 362.188 261.169C365.777 259.15 369.746 259.735 373.552 260.372C377.062 260.96 380.728 261.654 383.641 264.676C386.554 267.698 388.385 273.831 386.735 278.561C388.361 278.407 389.735 280.668 390.084 283.077C390.434 285.486 390.019 287.982 389.607 290.369C390.879 292.724 393.295 290.114 394.445 287.617C397.146 281.755 399.754 275.404 400.177 268.287C400.6 261.17 398.137 253.169 393.593 251.244C394.313 250.557 394.828 249.473 395.03 248.221L391.369 246.173C392.358 246.367 393.361 246.034 394.206 245.232C392.242 247.111 381.757 234.781 379.348 233.632Z" fill="#201F30"/>
<path d="M374.112 334.75C374.112 334.75 363.703 319.301 359.956 320.248C356.21 321.194 351.095 334.75 351.095 334.75C351.095 334.75 320.404 350.243 321.683 365.736C322.962 381.228 337.028 456.756 337.028 456.756C337.028 456.756 348.537 547.775 338.307 557.458C328.077 567.141 386.9 592.317 388.179 580.697C389.458 569.078 392.015 452.882 388.179 435.453C384.343 418.024 374.112 334.75 374.112 334.75Z" fill="#3B9DF8"/>
<path d="M418.87 365.735H434.682C434.682 365.735 445.724 439.326 447.003 447.072C448.281 454.819 450.839 491.614 449.56 491.614C448.281 491.614 422.706 483.867 422.706 489.677L418.87 365.735Z" fill="#3B9DF8"/>
<path d="M418.334 560.297H357.801C351.894 519.145 351.4 479.384 357.801 441.396H418.334C408.565 478.701 407.955 518.189 418.334 560.297Z" fill="#3B9DF8"/>
<path d="M333.191 503.588L351.094 515.208C351.094 515.208 385.621 522.954 385.621 501.651C385.621 480.349 351.094 491.969 351.094 491.969L339.584 486.396L333.191 503.588Z" fill="#FFD6BA"/>
<path d="M337.027 354.116L321.682 359.926L310.173 462.565C310.173 462.565 306.337 489.678 312.731 491.614C319.125 493.551 337.027 509.044 337.027 509.044C337.027 509.044 339.585 479.995 344.7 479.995L331.912 464.502L339.585 396.721L337.027 354.116Z" fill="#3B9DF8"/>
<path d="M120.015 552.424H36.1079V554.239H120.015V552.424Z" fill="#3B9DF8"/>
<path d="M60.0815 536.087H58.8828V552.878H60.0815V536.087Z" fill="#3B9DF8"/>
<path d="M96.6408 536.087H95.4421V552.878H96.6408V536.087Z" fill="#3B9DF8"/>
<path d="M149.382 283.763H65.4753V285.578H149.382V283.763Z" fill="#3B9DF8"/>
<path d="M126.608 285.124H125.409V301.915H126.608V285.124Z" fill="#3B9DF8"/>
<path d="M90.0483 285.124H88.8496V301.915H90.0483V285.124Z" fill="#3B9DF8"/>
<path d="M250.185 462.567H166.278V464.383H250.185V462.567Z" fill="#3B9DF8"/>
<path d="M227.41 463.93H226.211V480.721H227.41V463.93Z" fill="#3B9DF8"/>
<path d="M190.851 463.93H189.652V480.721H190.851V463.93Z" fill="#3B9DF8"/>
<path d="M91.2471 461.66H7.34033V463.475H91.2471V461.66Z" fill="#3B9DF8"/>
<path d="M68.4724 463.021H67.2737V479.813H68.4724V463.021Z" fill="#3B9DF8"/>
<path d="M31.9123 463.021H30.7136V479.813H31.9123V463.021Z" fill="#3B9DF8"/>
<path d="M191.935 370.896H108.028V372.712H191.935V370.896Z" fill="#3B9DF8"/>
<path d="M132.002 354.559H130.803V371.35H132.002V354.559Z" fill="#3B9DF8"/>
<path d="M168.561 354.559H167.362V371.35H168.561V354.559Z" fill="#3B9DF8"/>
</svg>
