<svg width="60" height="60" viewBox="0 0 60 60" fill="none" xmlns="http://www.w3.org/2000/svg">
<rect x="0.5" y="0.5" width="59" height="59" stroke="white"/>
<path d="M9.72656 45C8.20312 41.1328 5.625 34.0582 5.625 30C5.625 16.5375 17.4996 5.625 30 5.625C42.5004 5.625 54.375 16.5375 54.375 30C54.375 34.0582 51.6797 41.3672 50.2734 45" stroke="#131313" stroke-width="4" stroke-linecap="round" stroke-linejoin="round"/>
<path d="M12.702 31.6559L11.0977 32.5934C7.55514 34.6676 7.38288 41.0789 10.7016 46.9137C14.0204 52.7485 19.5926 55.7977 23.1352 53.7246L24.7395 52.7871C25.1653 52.5335 25.4748 52.1231 25.6014 51.644C25.728 51.1648 25.6618 50.6551 25.4169 50.2242L15.2344 32.3438C15.1144 32.1312 14.9534 31.9446 14.7607 31.7948C14.568 31.645 14.3475 31.5349 14.1119 31.4709C13.8764 31.4069 13.6304 31.3903 13.3884 31.422C13.1464 31.4538 12.9131 31.5333 12.702 31.6559ZM47.2981 31.6559L48.9024 32.5934C52.445 34.6664 52.6219 41.0777 49.2985 46.9125C45.9751 52.7473 40.4075 55.7965 36.8649 53.7235L35.2606 52.786C34.8348 52.5324 34.5254 52.1219 34.3987 51.6428C34.2721 51.1636 34.3384 50.6539 34.5833 50.2231L44.7657 32.3438C44.8857 32.1312 45.0468 31.9446 45.2395 31.7948C45.4322 31.645 45.6527 31.5349 45.8882 31.4709C46.1238 31.4069 46.3697 31.3903 46.6117 31.422C46.8537 31.4538 47.087 31.5333 47.2981 31.6559Z" stroke="black" stroke-width="4" stroke-miterlimit="10"/>
</svg>
