<svg width="18" height="18" viewBox="0 0 18 18" fill="none" xmlns="http://www.w3.org/2000/svg">
<path d="M15.6667 13.167C16.1087 13.167 16.5326 12.9914 16.8452 12.6788C17.1577 12.3663 17.3333 11.9424 17.3333 11.5003V2.33366C17.3333 1.89163 17.1577 1.46771 16.8452 1.15515C16.5326 0.842587 16.1087 0.666992 15.6667 0.666992H7.98898C7.49682 0.666992 7.17506 1.21531 7.27068 1.69809V1.69809C7.33939 2.045 7.62002 2.33366 7.97366 2.33366H13.6667C14.7712 2.33366 15.6667 3.22909 15.6667 4.33366V9.50032C15.6667 10.6049 14.7712 11.5003 13.6667 11.5003H9.83333C8.91286 11.5003 8.16667 12.2465 8.16667 13.167V13.167M10.6667 4.83366C11.1269 4.83366 11.5 5.20675 11.5 5.66699V5.66699C11.5 6.12723 11.1269 6.50033 10.6667 6.50033H8.5C7.39543 6.50033 6.5 7.39576 6.5 8.50033V16.5003C6.5 16.9606 6.1269 17.3337 5.66667 17.3337V17.3337C5.20643 17.3337 4.83333 16.9606 4.83333 16.5003V13.167C4.83333 12.7068 4.46024 12.3337 4 12.3337V12.3337C3.53976 12.3337 3.16667 12.7068 3.16667 13.167V16.5003C3.16667 16.9606 2.79357 17.3337 2.33333 17.3337V17.3337C1.8731 17.3337 1.5 16.9606 1.5 16.5003V11.292C1.5 10.9468 1.22018 10.667 0.875 10.667V10.667C0.529822 10.667 0.25 10.3872 0.25 10.042V6.50033C0.25 6.0583 0.425595 5.63437 0.738155 5.32181C1.05072 5.00925 1.47464 4.83366 1.91667 4.83366H10.6667ZM5.66667 2.33366C5.66667 2.77569 5.49107 3.19961 5.17851 3.51217C4.86595 3.82473 4.44203 4.00033 4 4.00033C3.55797 4.00033 3.13405 3.82473 2.82149 3.51217C2.50893 3.19961 2.33333 2.77569 2.33333 2.33366C2.33333 1.89163 2.50893 1.46771 2.82149 1.15515C3.13405 0.842587 3.55797 0.666992 4 0.666992C4.44203 0.666992 4.86595 0.842587 5.17851 1.15515C5.49107 1.46771 5.66667 1.89163 5.66667 2.33366Z" fill="#5D6E8B"/>
</svg>
