<svg width="25" height="24" viewBox="0 0 25 24" fill="none" xmlns="http://www.w3.org/2000/svg">
<g clip-path="url(#clip0_241_4403)">
<path d="M3.93876 9H21.2689M3.93876 15H21.2689M3.31982 12C3.31982 13.1819 3.55996 14.3522 4.02653 15.4442C4.49309 16.5361 5.17695 17.5282 6.03905 18.364C6.90115 19.1997 7.92461 19.8626 9.05099 20.3149C10.1774 20.7672 11.3846 21 12.6038 21C13.823 21 15.0303 20.7672 16.1567 20.3149C17.2831 19.8626 18.3065 19.1997 19.1686 18.364C20.0307 17.5282 20.7146 16.5361 21.1811 15.4442C21.6477 14.3522 21.8878 13.1819 21.8878 12C21.8878 9.61305 20.9097 7.32387 19.1686 5.63604C17.4275 3.94821 15.0661 3 12.6038 3C10.1416 3 7.78013 3.94821 6.03905 5.63604C4.29796 7.32387 3.31982 9.61305 3.31982 12Z" stroke="black" stroke-width="2" stroke-linecap="round" stroke-linejoin="round"/>
<path d="M12.0881 3C10.3503 5.69961 9.42896 8.81787 9.42896 12C9.42896 15.1821 10.3503 18.3004 12.0881 21M13.1197 3C14.8575 5.69961 15.7788 8.81787 15.7788 12C15.7788 15.1821 14.8575 18.3004 13.1197 21" stroke="black" stroke-width="2" stroke-linecap="round" stroke-linejoin="round"/>
<path d="M24.8269 14V6.08H30.9949V7.676H26.8909V9.284H30.1549V10.784H26.8909V12.404H31.1509V14H24.8269ZM39.5372 6.08V14H37.2452L34.7852 9.716L34.1852 8.54H34.1732L34.2212 10.004V14H32.3972V6.08H34.6892L37.1492 10.364L37.7492 11.54H37.7612L37.7132 10.076V6.08H39.5372Z" fill="black"/>
</g>
<defs>
<clipPath id="clip0_241_4403">
<rect width="24.7573" height="24" fill="white" transform="translate(0.225098)"/>
</clipPath>
</defs>
</svg>
