<svg width="69" height="35" viewBox="0 0 69 35" fill="none" xmlns="http://www.w3.org/2000/svg">
<path d="M5.61111 2H63.3889C64.3466 2 65.2651 2.32281 65.9423 2.89743C66.6195 3.47204 67 4.25138 67 5.064V6.596C67 11.192 57.9108 23.6717 52.5556 26.512V29.576C52.5556 30.3886 52.1751 31.168 51.4979 31.7426C50.8207 32.3172 49.9022 32.64 48.9444 32.64H20.0556C19.0978 32.64 18.1793 32.3172 17.5021 31.7426C16.8249 31.168 16.4444 30.3886 16.4444 29.576V26.512C10.3525 23.2825 2 11.192 2 6.596V5.064C2 4.25138 2.38046 3.47204 3.05767 2.89743C3.73488 2.32281 4.65338 2 5.61111 2Z" stroke="black" stroke-width="3" stroke-linecap="round" stroke-linejoin="round"/>
</svg>
