<svg width="60" height="60" viewBox="0 0 60 60" fill="none" xmlns="http://www.w3.org/2000/svg">
<g clip-path="url(#clip0_51_1030)">
<path d="M41.25 3.75C42.2446 3.75 43.1984 4.14509 43.9016 4.84835C44.6049 5.55161 45 6.50544 45 7.5V52.5C45 53.4946 44.6049 54.4484 43.9016 55.1516C43.1984 55.8549 42.2446 56.25 41.25 56.25H18.75C17.7554 56.25 16.8016 55.8549 16.0984 55.1516C15.3951 54.4484 15 53.4946 15 52.5V7.5C15 6.50544 15.3951 5.55161 16.0984 4.84835C16.8016 4.14509 17.7554 3.75 18.75 3.75H41.25ZM18.75 0C16.7609 0 14.8532 0.790176 13.4467 2.1967C12.0402 3.60322 11.25 5.51088 11.25 7.5V52.5C11.25 54.4891 12.0402 56.3968 13.4467 57.8033C14.8532 59.2098 16.7609 60 18.75 60H41.25C43.2391 60 45.1468 59.2098 46.5533 57.8033C47.9598 56.3968 48.75 54.4891 48.75 52.5V7.5C48.75 5.51088 47.9598 3.60322 46.5533 2.1967C45.1468 0.790176 43.2391 0 41.25 0L18.75 0Z" fill="#0C0A0A"/>
<path d="M30 52.5C30.9946 52.5 31.9484 52.1049 32.6516 51.4016C33.3549 50.6984 33.75 49.7446 33.75 48.75C33.75 47.7554 33.3549 46.8016 32.6516 46.0984C31.9484 45.3951 30.9946 45 30 45C29.0054 45 28.0516 45.3951 27.3484 46.0984C26.6451 46.8016 26.25 47.7554 26.25 48.75C26.25 49.7446 26.6451 50.6984 27.3484 51.4016C28.0516 52.1049 29.0054 52.5 30 52.5Z" fill="#0C0A0A"/>
</g>
<defs>
<clipPath id="clip0_51_1030">
<rect width="60" height="60" fill="white"/>
</clipPath>
</defs>
</svg>
