<svg width="40" height="40" viewBox="0 0 40 40" fill="none" xmlns="http://www.w3.org/2000/svg">
<rect width="40" height="40" rx="20" fill="#3F91F6" fill-opacity="0.05"/>
<path d="M23.8461 13.8462C23.8461 14.8662 23.4409 15.8445 22.7196 16.5658C21.9983 17.2871 21.0201 17.6923 20 17.6923C18.9799 17.6923 18.0016 17.2871 17.2804 16.5658C16.5591 15.8445 16.1538 14.8662 16.1538 13.8462C16.1538 12.8261 16.5591 11.8478 17.2804 11.1265C18.0016 10.4052 18.9799 10 20 10C21.0201 10 21.9983 10.4052 22.7196 11.1265C23.4409 11.8478 23.8461 12.8261 23.8461 13.8462ZM12.3087 28.3261C12.3417 26.308 13.1665 24.3837 14.6053 22.9682C16.0441 21.5527 17.9816 20.7594 20 20.7594C22.0184 20.7594 23.9559 21.5527 25.3947 22.9682C26.8335 24.3837 27.6583 26.308 27.6913 28.3261C25.2783 29.4326 22.6545 30.0036 20 30C17.2554 30 14.6503 29.401 12.3087 28.3261Z" stroke="#51A7FC" stroke-width="1.5" stroke-linecap="round" stroke-linejoin="round"/>
</svg>
