<svg width="64" height="66" viewBox="0 0 64 66" fill="none" xmlns="http://www.w3.org/2000/svg">
<path d="M14 2.30433C17.0813 2.29939 20.046 3.81416 22.28 6.53483C24.514 9.2555 25.8459 12.9736 26 16.9188V58.07C26 59.6 25.5259 61.0673 24.682 62.1492C23.8381 63.2311 22.6935 63.8388 21.5 63.8388C20.3065 63.8388 19.1619 63.2311 18.318 62.1492C17.4741 61.0673 17 59.6 17 58.07V33.0716H14C10.9187 33.0765 7.95395 31.5618 5.72 28.8411C3.48604 26.1204 2.15406 22.4024 2 18.4571V17.688C2 13.608 3.26428 9.69508 5.51472 6.81009C7.76516 3.9251 10.8174 2.30433 14 2.30433ZM50 2.30433C46.9187 2.29939 43.954 3.81416 41.72 6.53483C39.486 9.2555 38.1541 12.9736 38 16.9188V58.07C38 59.6 38.4741 61.0673 39.318 62.1492C40.1619 63.2311 41.3065 63.8388 42.5 63.8388C43.6935 63.8388 44.8381 63.2311 45.682 62.1492C46.5259 61.0673 47 59.6 47 58.07V33.0716H50C53.0813 33.0765 56.046 31.5618 58.28 28.8411C60.514 26.1204 61.8459 22.4024 62 18.4571V17.688C62 13.608 60.7357 9.69508 58.4853 6.81009C56.2348 3.9251 53.1826 2.30433 50 2.30433Z" stroke="black" stroke-width="3" stroke-linecap="round" stroke-linejoin="round"/>
</svg>
