<svg width="60" height="60" viewBox="0 0 60 60" fill="none" xmlns="http://www.w3.org/2000/svg">
<path d="M11.905 11.7308H14.2859C15.5489 11.7308 16.7601 11.1229 17.6531 10.041C18.5461 8.95904 19.0478 7.49161 19.0478 5.96152C19.0478 5.19647 19.2987 4.46276 19.7452 3.92179C20.1917 3.38082 20.7973 3.0769 21.4288 3.0769H35.7145C36.346 3.0769 36.9516 3.38082 37.3981 3.92179C37.8446 4.46276 38.0954 5.19647 38.0954 5.96152C38.0954 7.49161 38.5971 8.95904 39.4902 10.041C40.3832 11.1229 41.5944 11.7308 42.8574 11.7308H45.2383C46.5012 11.7308 47.7124 12.3386 48.6055 13.4205C49.4985 14.5025 50.0002 15.9699 50.0002 17.5V43.4615C50.0002 44.9916 49.4985 46.459 48.6055 47.541C47.7124 48.6229 46.5012 49.2308 45.2383 49.2308H11.905C10.642 49.2308 9.43083 48.6229 8.5378 47.541C7.64477 46.459 7.14307 44.9916 7.14307 43.4615V17.5C7.14307 15.9699 7.64477 14.5025 8.5378 13.4205C9.43083 12.3386 10.642 11.7308 11.905 11.7308Z" fill="white" stroke="black" stroke-width="3" stroke-linecap="round" stroke-linejoin="round"/>
<path d="M21.4287 26.3461C21.4287 28.6412 22.1813 30.8424 23.5208 32.4653C24.8603 34.0882 26.6772 35 28.5716 35C30.466 35 32.2828 34.0882 33.6223 32.4653C34.9619 30.8424 35.7144 28.6412 35.7144 26.3461C35.7144 24.051 34.9619 21.8498 33.6223 20.2269C32.2828 18.604 30.466 17.6923 28.5716 17.6923C26.6772 17.6923 24.8603 18.604 23.5208 20.2269C22.1813 21.8498 21.4287 24.051 21.4287 26.3461Z" fill="white" stroke="black" stroke-width="3" stroke-linecap="round" stroke-linejoin="round"/>
</svg>
