<svg width="26" height="26" viewBox="0 0 26 26" fill="none" xmlns="http://www.w3.org/2000/svg">
<path d="M8.99995 21.6C9.44178 21.6 9.79995 21.2418 9.79995 20.8C9.79995 20.3582 9.44178 20 8.99995 20C8.55812 20 8.19995 20.3582 8.19995 20.8C8.19995 21.2418 8.55812 21.6 8.99995 21.6Z" stroke="#FEFAFA" stroke-width="1.5" stroke-linecap="round" stroke-linejoin="round"/>
<path d="M20.1999 21.6C20.6417 21.6 20.9999 21.2418 20.9999 20.8C20.9999 20.3582 20.6417 20 20.1999 20C19.7581 20 19.3999 20.3582 19.3999 20.8C19.3999 21.2418 19.7581 21.6 20.1999 21.6Z" stroke="white" stroke-width="1.5" stroke-linecap="round" stroke-linejoin="round"/>
<path d="M2.59985 4H5.79985L8.19985 17.6H20.9999" stroke="#FFFEFE" stroke-width="1.5" stroke-linecap="round" stroke-linejoin="round"/>
<path d="M8.19985 13.3333H20.6719C20.7644 13.3334 20.854 13.3014 20.9256 13.2428C20.9972 13.1842 21.0462 13.1026 21.0644 13.0118L22.5044 5.81184C22.516 5.75379 22.5146 5.69387 22.5002 5.63643C22.4859 5.57898 22.4589 5.52544 22.4214 5.47966C22.3838 5.43388 22.3366 5.39701 22.2831 5.37171C22.2295 5.34641 22.1711 5.3333 22.1119 5.33334H6.59985" stroke="white" stroke-width="1.5" stroke-linecap="round" stroke-linejoin="round"/>
</svg>
