<svg width="15" height="15" viewBox="0 0 15 15" fill="none" xmlns="http://www.w3.org/2000/svg">
<path fill-rule="evenodd" clip-rule="evenodd" d="M6.55774 2.52785e-08C5.552 0.000116846 4.56093 0.258685 3.66748 0.754058C2.77404 1.24943 2.00421 1.9672 1.42245 2.84726C0.840695 3.72733 0.463933 4.7441 0.323707 5.81244C0.183481 6.88078 0.283871 7.96962 0.616474 8.98779C0.949077 10.006 1.50421 10.9239 2.23541 11.6646C2.96661 12.4054 3.85259 12.9475 4.81919 13.2455C5.78579 13.5435 6.80488 13.5888 7.79115 13.3776C8.77741 13.1663 9.70216 12.7047 10.488 12.0314L13.0589 14.7893C13.1909 14.926 13.3676 15.0017 13.551 15C13.7344 14.9983 13.9099 14.9193 14.0396 14.7802C14.1693 14.6411 14.2429 14.4528 14.2445 14.2561C14.2461 14.0593 14.1756 13.8697 14.0481 13.7282L11.4772 10.9702C12.2173 9.97653 12.6809 8.77881 12.8144 7.51495C12.948 6.25108 12.7461 4.97245 12.2321 3.82622C11.7181 2.67999 10.9128 1.71276 9.90897 1.03586C8.9051 0.358952 7.74345 -0.000110001 6.55774 2.52785e-08ZM2.36026 6.75415C2.36026 6.16284 2.46883 5.57732 2.67978 5.03102C2.89072 4.48471 3.1999 3.98833 3.58967 3.57021C3.97945 3.15209 4.44217 2.82042 4.95143 2.59414C5.46069 2.36785 6.00652 2.25138 6.55774 2.25138C7.10896 2.25138 7.65478 2.36785 8.16404 2.59414C8.6733 2.82042 9.13603 3.15209 9.5258 3.57021C9.91557 3.98833 10.2248 4.48471 10.4357 5.03102C10.6466 5.57732 10.7552 6.16284 10.7552 6.75415C10.7552 7.94836 10.313 9.09365 9.5258 9.93809C8.73862 10.7825 7.67098 11.2569 6.55774 11.2569C5.4445 11.2569 4.37685 10.7825 3.58967 9.93809C2.8025 9.09365 2.36026 7.94836 2.36026 6.75415Z" fill="#939090"/>
</svg>
