<svg width="28" height="27" viewBox="0 0 28 27" fill="none" xmlns="http://www.w3.org/2000/svg">
<path d="M23.2189 4.55385C21.9827 3.3863 20.5103 2.46069 18.8876 1.83103C17.2649 1.20137 15.5245 0.880265 13.7677 0.88644C6.40666 0.88644 0.40759 6.49635 0.400848 13.3834C0.400848 15.5892 1.01778 17.7351 2.18253 19.635L0.292969 26.1137L7.37926 24.3762C9.33875 25.3762 11.5355 25.8994 13.7677 25.8977H13.7744C21.1372 25.8977 27.1346 20.2878 27.1413 13.3944C27.1428 11.7516 26.7969 10.1247 26.1234 8.60747C25.4499 7.09022 24.4639 5.71257 23.2189 4.55385ZM13.7677 23.7818C11.7773 23.7803 9.82376 23.2794 8.11081 22.3312L7.70626 22.1042L3.50236 23.1353L4.62498 19.2992L4.36202 18.9034C3.2492 17.2484 2.66065 15.3322 2.66462 13.3771C2.66462 7.65996 7.64895 2.99607 13.7744 2.99607C15.2337 2.99362 16.6791 3.26139 18.0273 3.78394C19.3754 4.30648 20.5996 5.07347 21.6294 6.04069C22.6625 7.00429 23.4815 8.1496 24.0393 9.41062C24.597 10.6716 24.8825 12.0234 24.8792 13.3881C24.8725 19.1258 19.8881 23.7818 13.7677 23.7818ZM19.8612 16.0023C19.5291 15.8462 17.889 15.091 17.5805 14.9838C17.2738 14.8813 17.0496 14.8277 16.8305 15.1398C16.6063 15.4505 15.9657 16.1584 15.7736 16.3618C15.5814 16.5715 15.3825 16.5951 15.0488 16.4406C14.7167 16.283 13.6396 15.955 12.3653 14.8876C11.3708 14.0598 10.705 13.0349 10.5061 12.7243C10.3139 12.4121 10.4875 12.245 10.6544 12.0889C10.801 11.9502 10.9865 11.7231 11.1533 11.5434C11.3219 11.3636 11.3775 11.2312 11.4871 11.0231C11.5966 10.8118 11.5444 10.632 11.4618 10.476C11.3775 10.3199 10.7117 8.77942 10.4302 8.1582C10.1605 7.54486 9.88575 7.63 9.68011 7.62212C9.48795 7.61108 9.26376 7.61108 9.03958 7.61108C8.8703 7.61511 8.70373 7.65178 8.5503 7.7188C8.39687 7.78581 8.25988 7.88172 8.14789 8.00053C7.84111 8.31272 6.98314 9.06796 6.98314 10.6084C6.98314 12.1488 8.17992 13.6294 8.34848 13.8391C8.51367 14.0488 10.6982 17.2006 14.0509 18.5566C14.8431 18.8798 15.4668 19.0706 15.9539 19.2156C16.7546 19.4553 17.4777 19.419 18.0542 19.3418C18.6947 19.2503 20.028 18.5849 20.3095 17.8549C20.586 17.1233 20.586 16.499 20.5017 16.3681C20.4191 16.2357 20.1949 16.1584 19.8612 16.0023Z" fill="white"/>
</svg>
