<svg width="40" height="40" viewBox="0 0 40 40" fill="none" xmlns="http://www.w3.org/2000/svg">
<circle cx="20" cy="20" r="20" fill="#3B9DF8"/>
<path d="M16 29.6C16.4418 29.6 16.8 29.2418 16.8 28.8C16.8 28.3582 16.4418 28 16 28C15.5581 28 15.2 28.3582 15.2 28.8C15.2 29.2418 15.5581 29.6 16 29.6Z" stroke="#FEFAFA" stroke-width="1.5" stroke-linecap="round" stroke-linejoin="round"/>
<path d="M27.1999 29.6C27.6417 29.6 27.9999 29.2418 27.9999 28.8C27.9999 28.3582 27.6417 28 27.1999 28C26.7581 28 26.3999 28.3582 26.3999 28.8C26.3999 29.2418 26.7581 29.6 27.1999 29.6Z" stroke="white" stroke-width="1.5" stroke-linecap="round" stroke-linejoin="round"/>
<path d="M9.59985 12H12.7999L15.1999 25.6H27.9999" stroke="#FFFEFE" stroke-width="1.5" stroke-linecap="round" stroke-linejoin="round"/>
<path d="M15.1999 21.3333H27.6719C27.7644 21.3334 27.854 21.3014 27.9256 21.2428C27.9972 21.1842 28.0462 21.1026 28.0644 21.0118L29.5044 13.8118C29.516 13.7538 29.5146 13.6939 29.5002 13.6364C29.4859 13.579 29.4589 13.5254 29.4214 13.4797C29.3838 13.4339 29.3366 13.397 29.2831 13.3717C29.2295 13.3464 29.1711 13.3333 29.1119 13.3333H13.5999" stroke="white" stroke-width="1.5" stroke-linecap="round" stroke-linejoin="round"/>
</svg>
